# xmcd
#
# Track frame offsets: 
#        150
#        9380
#        21090
#        35062
#        45815
#        59046
#        72811
#        84253
#        97774
#        115016
#        127038
#        140033
#
# Disc length: 2005 seconds
#
# Revision: 0
# Processed by: cddbd v1.5.2PL0 Copyright (c) Steve Scherf et al.
# Submitted via: ExactAudioCopy v0.99pb4
#
DISCID=9607d30c
DTITLE=Tortilla Factory - Tortilla Factory 1974
DYEAR=1974
DGENRE=Rock
TTITLE0=Dame La Mano
TTITLE1=Respeta Mi Dolor
TTITLE2=Cuando Vivas Conmigo
TTITLE3=Moctezuma
TTITLE4=Te Estas Volviendo Mujer
TTITLE5=Despierta
TTITLE6=Tu Amor Y El Mio
TTITLE7=Amor Sin Medida
TTITLE8=No Podemos Querernos
TTITLE9=Huecito De Chabacano
TTITLE10=Botas De Charro
TTITLE11=Bonita
EXTD=
EXTT0=
EXTT1=
EXTT2=
EXTT3=
EXTT4=
EXTT5=
EXTT6=
EXTT7=
EXTT8=
EXTT9=
EXTT10=
EXTT11=
PLAYORDER=
